<?xml version="1.0" encoding="utf-8"?>
<!-- Generator: Adobe Illustrator 24.2.0, SVG Export Plug-In . SVG Version: 6.00 Build 0)  -->
<svg version="1.1" id="Layer_1" xmlns="http://www.w3.org/2000/svg" xmlns:xlink="http://www.w3.org/1999/xlink" x="0px" y="0px"
	 viewBox="0 0 800 800" style="enable-background:new 0 0 800 800;" xml:space="preserve">
<style type="text/css">
	.st0{fill:url(#SVGID_1_);}
	.st1{fill:#FFFFFF;}
</style>
<radialGradient id="SVGID_1_" cx="74.25" cy="772.25" r="845.5838" gradientUnits="userSpaceOnUse">
	<stop  offset="0" style="stop-color:#FFD676"/>
	<stop  offset="0.2463" style="stop-color:#F2A454"/>
	<stop  offset="0.3793" style="stop-color:#F05C3C"/>
	<stop  offset="0.6995" style="stop-color:#C22F86"/>
	<stop  offset="0.9673" style="stop-color:#6666AD"/>
	<stop  offset="0.997" style="stop-color:#5C6CB2"/>
</radialGradient>
<path class="st0" d="M630,800H170C76.1,800,0,723.9,0,630V170C0,76.1,76.1,0,170,0h460c93.9,0,170,76.1,170,170v460
	C800,723.9,723.9,800,630,800z"/>
<path class="st1" d="M400,156.1c79.4,0,88.8,0.3,120.2,1.7c29,1.3,44.8,6.2,55.2,10.2c13.9,5.4,23.8,11.8,34.2,22.3
	c10.4,10.4,16.9,20.3,22.3,34.2c4.1,10.5,8.9,26.2,10.2,55.2c1.4,31.4,1.7,40.8,1.7,120.2s-0.3,88.8-1.7,120.2
	c-1.3,29-6.2,44.8-10.2,55.2c-5.4,13.9-11.8,23.8-22.3,34.2c-10.4,10.4-20.3,16.9-34.2,22.3c-10.5,4.1-26.2,8.9-55.2,10.2
	c-31.4,1.4-40.8,1.7-120.2,1.7s-88.8-0.3-120.2-1.7c-29-1.3-44.8-6.2-55.2-10.2c-13.9-5.4-23.8-11.8-34.2-22.3
	c-10.4-10.4-16.9-20.3-22.3-34.2c-4.1-10.5-8.9-26.2-10.2-55.2c-1.4-31.4-1.7-40.8-1.7-120.2s0.3-88.8,1.7-120.2
	c1.3-29,6.2-44.8,10.2-55.2c5.4-13.9,11.8-23.8,22.3-34.2c10.4-10.4,20.3-16.9,34.2-22.3c10.5-4.1,26.2-8.9,55.2-10.2
	C311.2,156.4,320.6,156.1,400,156.1 M400,102.5c-80.8,0-90.9,0.3-122.7,1.8c-31.7,1.4-53.3,6.5-72.2,13.8
	c-19.6,7.6-36.2,17.8-52.7,34.3c-16.5,16.5-26.7,33.1-34.3,52.7c-7.4,18.9-12.4,40.5-13.8,72.2c-1.4,31.7-1.8,41.9-1.8,122.7
	c0,80.8,0.3,90.9,1.8,122.7c1.4,31.7,6.5,53.3,13.8,72.2c7.6,19.6,17.8,36.2,34.3,52.7c16.5,16.5,33.1,26.7,52.7,34.3
	c18.9,7.4,40.5,12.4,72.2,13.8c31.7,1.4,41.9,1.8,122.7,1.8s90.9-0.3,122.7-1.8c31.7-1.4,53.3-6.5,72.2-13.8
	c19.6-7.6,36.2-17.8,52.7-34.3c16.5-16.5,26.7-33.1,34.3-52.7c7.4-18.9,12.4-40.5,13.8-72.2c1.4-31.7,1.8-41.9,1.8-122.7
	s-0.3-90.9-1.8-122.7c-1.4-31.7-6.5-53.3-13.8-72.2c-7.6-19.6-17.8-36.2-34.3-52.7c-16.5-16.5-33.1-26.7-52.7-34.3
	c-18.9-7.4-40.5-12.4-72.2-13.8C490.9,102.8,480.8,102.5,400,102.5L400,102.5z"/>
<path class="st1" d="M400,247.2c-84.4,0-152.8,68.4-152.8,152.8S315.6,552.8,400,552.8S552.8,484.4,552.8,400S484.4,247.2,400,247.2
	z M400,499.2c-54.8,0-99.2-44.4-99.2-99.2c0-54.8,44.4-99.2,99.2-99.2c54.8,0,99.2,44.4,99.2,99.2
	C499.2,454.8,454.8,499.2,400,499.2z"/>
<circle class="st1" cx="558.8" cy="241.2" r="35.7"/>
</svg>
