<?xml version="1.0" encoding="utf-8"?>
<!-- Generator: Adobe Illustrator 23.0.2, SVG Export Plug-In . SVG Version: 6.00 Build 0)  -->
<svg version="1.1" id="Camada_1" xmlns="http://www.w3.org/2000/svg" xmlns:xlink="http://www.w3.org/1999/xlink" x="0px" y="0px"
	 viewBox="0 0 213 266" style="enable-background:new 0 0 213 266;" xml:space="preserve">
<path d="M179.8,104c0-9-13.7-26.7-31.9-30.7C147.9,58,145,0,107.8,0c-37.1,0-42,58-42.7,73.3c-18.2,3.9-32,21.6-32,30.7L0,244.1
	C0,261.5,12.6,266,34.3,266h72.2h72.2c21.7,0,34.3-4.5,34.3-21.9L179.8,104z M106.9,13.5c21.9,0,29.8,44.5,31.8,59h-32.2H75.2
	C77.2,58,85,13.5,106.9,13.5z M152.3,234.9h-45.8H60.7c-13.7,0-21.7-3.5-21.7-16.7l21-98.7c0-7.8,11.1-24,24.9-24h21.6h21.6
	c13.7,0,24.9,16.2,24.9,24l21,98.7C174,231.4,166,234.9,152.3,234.9z"/>
</svg>
